<?xml version="1.0" standalone="no"?>
<!DOCTYPE svg PUBLIC "-//W3C//DTD SVG 20010904//EN"
 "http://www.w3.org/TR/2001/REC-SVG-20010904/DTD/svg10.dtd">
<svg version="1.0" xmlns="http://www.w3.org/2000/svg"
 width="512.000000pt" height="512.000000pt" viewBox="0 0 512.000000 512.000000"
 preserveAspectRatio="xMidYMid meet">
<metadata>
Created by potrace 1.11, written by Peter Selinger 2001-2013
</metadata>
<g transform="translate(0.000000,512.000000) scale(0.100000,-0.100000)"
fill="#000000" stroke="none">
<path d="M0 2560 l0 -2560 2560 0 2560 0 0 2560 0 2560 -2560 0 -2560 0 0
-2560z m1873 1281 c158 -42 283 -125 326 -216 l21 -46 107 3 107 3 13 65 c7
36 18 89 24 118 l10 52 476 0 475 0 -7 -120 -7 -120 79 0 79 0 37 120 37 120
479 0 479 0 -13 -62 c-7 -35 -18 -89 -25 -120 l-11 -58 -129 0 c-119 0 -128
-1 -133 -20 -5 -19 0 -20 124 -20 97 0 129 -3 129 -12 -1 -7 -9 -52 -19 -100
l-18 -88 143 0 c89 0 144 -4 144 -10 0 -6 -55 -10 -144 -10 -129 0 -145 -2
-149 -17 -3 -10 -24 -118 -48 -240 l-42 -222 -56 -3 c-49 -3 -56 -6 -59 -25
-3 -21 0 -23 51 -23 l54 0 -48 -247 c-27 -137 -51 -258 -54 -270 -5 -22 -3
-23 60 -23 36 0 65 -4 65 -9 0 -5 -3 -22 -6 -39 -6 -31 -7 -31 -73 -34 l-66
-3 -19 -102 -20 -103 -58 0 c-32 0 -58 -4 -58 -10 0 -5 25 -10 55 -10 l56 0
-7 -37 c-3 -21 -17 -91 -30 -157 -13 -65 -24 -123 -24 -127 0 -5 52 -9 115 -9
98 0 114 -2 109 -15 -5 -12 -28 -15 -119 -15 l-112 0 -28 -140 -28 -140 -337
0 -337 0 9 48 c16 86 38 215 38 223 0 5 -19 9 -42 9 l-43 0 -44 -140 -44 -140
-255 0 -255 0 7 140 7 140 -50 0 -50 0 -10 -53 c-6 -28 -18 -91 -27 -139 l-17
-88 -339 0 -338 0 5 23 c16 68 45 222 45 238 0 17 -8 19 -73 19 l-73 0 -37
-50 c-76 -101 -241 -198 -425 -248 -92 -25 -109 -26 -327 -26 -203 1 -239 3
-308 22 -187 51 -326 159 -362 280 -6 22 -6 22 109 22 98 0 115 2 110 15 -5
12 -28 15 -120 15 l-114 0 -2 48 c-3 73 -3 91 5 190 l7 92 -56 0 c-34 0 -53 4
-49 10 3 6 30 10 59 10 l52 0 20 103 19 102 68 3 c51 2 67 6 67 17 0 13 51 15
355 15 309 0 355 -2 355 -15 0 -11 11 -15 37 -15 l37 0 -39 40 c-37 38 -42 40
-102 40 l-63 0 -198 159 c-225 181 -290 246 -323 325 l-22 55 -56 3 c-49 3
-56 6 -59 26 -3 20 0 22 50 22 l53 0 0 133 c0 101 6 157 24 240 l24 107 148 0
c93 0 149 4 149 10 0 6 -55 10 -144 10 l-145 0 18 53 c10 29 28 72 40 97 11
24 21 45 21 47 0 2 -56 3 -125 3 -69 0 -125 4 -125 8 0 26 30 32 150 32 l125
0 63 63 c107 108 263 182 450 212 135 22 463 14 565 -14z m-1443 -341 c0 -18
-7 -20 -65 -20 -58 0 -65 2 -65 20 0 18 7 20 65 20 58 0 65 -2 65 -20z m40
-760 c0 -29 -2 -30 -45 -30 -43 0 -45 1 -45 30 0 29 2 30 45 30 43 0 45 -1 45
-30z m-140 -720 c0 -6 -42 -10 -105 -10 -63 0 -105 4 -105 10 0 6 42 10 105
10 63 0 105 -4 105 -10z"/>
<path d="M1960 3560 c0 -19 7 -20 105 -20 98 0 105 1 105 20 0 19 -7 20 -105
20 -98 0 -105 -1 -105 -20z"/>
<path d="M3160 3560 c0 -19 5 -21 72 -18 60 2 73 6 76 21 3 15 -6 17 -72 17
-70 0 -76 -2 -76 -20z"/>
<path d="M2230 3471 c0 -38 -3 -83 -6 -100 l-6 -31 84 0 85 0 20 100 20 100
-98 0 -99 0 0 -69z"/>
<path d="M3416 3503 c-3 -21 -6 -66 -6 -101 l0 -63 43 3 42 3 32 90 c17 50 32
93 32 98 1 4 -30 7 -68 7 l-68 0 -7 -37z"/>
<path d="M1446 3397 c-20 -21 -36 -43 -36 -48 0 -5 23 -9 50 -9 48 0 50 1 50
28 0 16 -6 37 -14 47 -14 19 -16 18 -50 -18z"/>
<path d="M1695 3330 c-4 -6 15 -10 49 -10 31 0 56 5 56 10 0 6 -22 10 -49 10
-28 0 -53 -4 -56 -10z"/>
<path d="M2510 3330 c0 -6 33 -10 79 -10 44 0 83 5 86 10 4 6 -25 10 -79 10
-51 0 -86 -4 -86 -10z"/>
<path d="M3700 3330 c0 -5 18 -10 40 -10 22 0 40 5 40 10 0 6 -18 10 -40 10
-22 0 -40 -4 -40 -10z"/>
<path d="M1395 3308 c-28 -79 -32 -205 -9 -254 19 -40 74 -91 174 -161 l75
-53 -53 0 -54 0 30 -25 c24 -20 41 -25 87 -25 55 0 61 -2 127 -57 164 -134
252 -261 263 -378 11 -110 7 -105 78 -105 l63 0 49 253 c26 138 50 260 53 270
4 15 -3 17 -53 17 -48 0 -56 3 -51 16 3 9 6 20 6 25 0 5 25 9 55 9 48 0 55 3
60 23 11 48 85 440 85 448 0 5 -36 9 -79 9 -79 0 -79 0 -85 -27 -3 -16 -13
-74 -23 -130 l-18 -103 -358 0 -359 0 6 23 c9 28 46 215 46 227 0 15 -110 12
-115 -2z"/>
<path d="M3406 3308 c-7 -21 -14 -275 -8 -258 3 8 24 72 48 143 l43 127 -40 0
c-23 0 -41 -5 -43 -12z"/>
<path d="M2176 2228 c-14 -54 -10 -58 53 -58 63 0 71 7 71 56 0 23 -3 24 -59
24 -52 0 -59 -2 -65 -22z"/>
<path d="M2972 2190 c0 -14 2 -19 5 -12 2 6 2 18 0 25 -3 6 -5 1 -5 -13z"/>
<path d="M1187 2163 c-3 -5 -12 -52 -22 -105 l-17 -98 -54 0 c-29 0 -56 -4
-59 -10 -4 -6 15 -10 51 -10 56 0 56 0 50 -27 -3 -16 -9 -63 -12 -106 -6 -65
-4 -80 10 -96 23 -26 56 -12 90 38 26 38 56 129 56 168 0 21 -4 23 -50 23 -27
0 -50 5 -50 10 0 6 25 10 55 10 l55 0 0 80 c0 105 -12 130 -61 130 -21 0 -40
-3 -42 -7z"/>
<path d="M2037 2113 c-4 -32 -9 -79 -13 -105 l-7 -48 52 0 c28 0 51 2 51 4 0
2 9 48 20 101 11 53 20 99 20 101 0 2 -26 4 -59 4 l-58 0 -6 -57z"/>
<path d="M2836 2159 c-5 -17 -36 -181 -36 -191 0 -5 8 -8 18 -8 17 0 20 12 25
102 6 95 3 130 -7 97z"/>
<path d="M3566 2072 c-16 -48 -31 -93 -33 -99 -3 -8 3 -13 14 -13 17 0 22 13
37 96 9 53 15 98 14 100 -2 2 -17 -36 -32 -84z"/>
<path d="M1900 1950 c0 -5 25 -10 55 -10 30 0 55 -3 55 -7 0 -24 -53 -207 -74
-258 l-24 -60 65 -3 c36 -2 68 -1 71 2 6 7 61 282 62 309 0 14 -9 17 -50 17
-27 0 -50 5 -50 10 0 6 -25 10 -55 10 -30 0 -55 -4 -55 -10z"/>
<path d="M2685 1950 c-4 -6 5 -10 19 -10 14 0 26 5 26 10 0 6 -9 10 -19 10
-11 0 -23 -4 -26 -10z"/>
<path d="M3420 1950 c0 -5 7 -10 15 -10 8 0 15 5 15 10 0 6 -7 10 -15 10 -8 0
-15 -4 -15 -10z"/>
<path d="M2761 1783 c-17 -87 -31 -161 -31 -165 0 -5 20 -8 44 -8 l44 0 6 118
c4 64 8 138 11 165 4 44 2 47 -19 47 -22 0 -25 -9 -55 -157z"/>
<path d="M3472 1782 c-28 -87 -52 -161 -52 -165 0 -4 18 -7 40 -7 22 0 40 2
40 4 0 2 14 75 30 161 17 86 30 159 30 161 0 2 -8 4 -18 4 -14 0 -28 -33 -70
-158z"/>
<path d="M2130 1595 c-11 -13 -2 -15 69 -15 65 0 81 3 81 15 0 12 -14 15 -69
15 -49 0 -72 -4 -81 -15z"/>
<path d="M2957 1603 c-17 -16 -3 -23 43 -23 38 0 50 4 50 15 0 11 -11 15 -43
15 -24 0 -47 -3 -50 -7z"/>
<path d="M3640 1594 c0 -12 9 -14 42 -12 59 4 63 28 4 28 -35 0 -46 -4 -46
-16z"/>
</g>
</svg>
